<svg width="52" height="34" viewBox="0 0 52 34" fill="none" xmlns="http://www.w3.org/2000/svg">
<rect x="3.49988" y="0.333313" width="45" height="33.3333" rx="16.6667" fill="#4F86FF"/>
<path d="M0.166504 13.8333C0.166504 13.281 0.614219 12.8333 1.1665 12.8333H4.33317V21.3803H1.1665C0.614219 21.3803 0.166504 20.9326 0.166504 20.3803V13.8333Z" fill="#4F86FF"/>
<path d="M47.6665 12H50.8332C51.3855 12 51.8332 12.4477 51.8332 13V20.4017C51.8332 20.954 51.3855 21.4017 50.8332 21.4017H47.6665V12Z" fill="#4F86FF"/>
<path d="M7.6665 12C7.6665 11.0795 8.33808 10.3333 9.1665 10.3333H39.1665C42.4802 10.3333 45.1665 13.3181 45.1665 17C45.1665 20.6819 42.4802 23.6666 39.1665 23.6666H16.6665C11.6959 23.6666 7.6665 19.1895 7.6665 13.6666V12Z" fill="white"/>
<path d="M23.2805 6.05692L31.8333 10.3333H21.8333V6.95135C21.8333 6.20796 22.6156 5.72447 23.2805 6.05692Z" fill="white"/>
<path d="M18.4999 16.5833C18.4999 17.7339 17.5672 18.6667 16.4166 18.6667C15.266 18.6667 14.3333 17.7339 14.3333 16.5833C14.3333 15.4327 15.266 14.5 16.4166 14.5C17.5672 14.5 18.4999 15.4327 18.4999 16.5833Z" fill="#4F86FF"/>
<path d="M38.4999 16.5833C38.4999 17.7339 37.5672 18.6667 36.4166 18.6667C35.266 18.6667 34.3333 17.7339 34.3333 16.5833C34.3333 15.4327 35.266 14.5 36.4166 14.5C37.5672 14.5 38.4999 15.4327 38.4999 16.5833Z" fill="#4F86FF"/>
</svg>
